<svg xmlns="http://www.w3.org/2000/svg" width="390" height="844" viewBox="0 0 390 844">
  <defs>
    <linearGradient id="bg" x1="0" y1="0" x2="0" y2="1">
      <stop stop-color="#fff7ee"/>
      <stop offset="1" stop-color="#ffdfdc"/>
    </linearGradient>
    <linearGradient id="hero" x1="0" y1="0" x2="1" y2="0">
      <stop stop-color="#e7f0d5"/>
      <stop offset="1" stop-color="#ffe6b8"/>
    </linearGradient>
    <filter id="shadow" x="-20%" y="-20%" width="140%" height="140%">
      <feDropShadow dx="0" dy="8" stdDeviation="9" flood-color="#dec8b8" flood-opacity=".35"/>
    </filter>
  </defs>
  <rect width="390" height="844" fill="url(#bg)"/>

  <g transform="translate(18 24)" filter="url(#shadow)">
    <rect width="354" height="92" rx="24" fill="url(#hero)"/>
    <circle cx="38" cy="46" r="23" fill="#fffdf8"/>
    <rect x="30" y="33" width="17" height="28" rx="7" fill="#6f9a63"/>
    <path d="M49 41c13 0 13 17 0 17" fill="none" stroke="#e87a78" stroke-width="5" stroke-linecap="round"/>
    <text x="74" y="42" fill="#322d2a" font-family="Arial, sans-serif" font-size="25" font-weight="800">Sips &amp; Snacks</text>
    <text x="76" y="66" fill="#6f9a63" font-family="Arial, sans-serif" font-size="14" font-weight="700">Background removal flow</text>
  </g>

  <g transform="translate(24 140)">
    <rect width="342" height="46" rx="18" fill="#fffdf8" opacity=".94"/>
    <text x="14" y="28" fill="#e87a78" font-family="Arial, sans-serif" font-size="13" font-weight="800">Cafe crew</text>
    <circle cx="113" cy="23" r="12" fill="#ffdfdc"/><text x="108" y="28" font-family="Arial" font-size="12" font-weight="800" fill="#322d2a">M</text>
    <text x="130" y="28" font-family="Arial" font-size="12" font-weight="700" fill="#322d2a">Mia</text>
    <circle cx="181" cy="23" r="12" fill="#ffe6b8"/><text x="177" y="28" font-family="Arial" font-size="12" font-weight="800" fill="#322d2a">L</text>
    <text x="198" y="28" font-family="Arial" font-size="12" font-weight="700" fill="#322d2a">Lulu</text>
  </g>

  <g transform="translate(32 214)" filter="url(#shadow)">
    <rect width="326" height="278" rx="28" fill="#fffdf8" stroke="#f4b95d" stroke-width="2"/>
    <text x="24" y="38" font-family="Arial" font-size="20" font-weight="900" fill="#322d2a">Peeling off the background</text>
    <text x="24" y="60" font-family="Arial" font-size="12" font-weight="700" fill="#6f9a63">ML Kit finds the drink, then saves a transparent cutout.</text>
    <g transform="translate(24 80)">
      <rect width="278" height="136" rx="20" fill="#ead4c2"/>
      <rect x="0" y="0" width="278" height="136" rx="20" fill="#8bb7c9" opacity=".48"/>
      <rect x="0" y="0" width="164" height="136" rx="20" fill="#e7f0d5" opacity=".78"/>
      <path d="M164 10v116" stroke="#6f9a63" stroke-width="4" stroke-linecap="round"/>
      <rect x="118" y="45" width="30" height="54" rx="10" fill="#6f9a63"/>
      <rect x="124" y="55" width="18" height="7" rx="3" fill="#ffe6b8"/>
      <path d="M151 58c28 0 28 36 0 36" fill="none" stroke="#e87a78" stroke-width="8" stroke-linecap="round"/>
      <text x="20" y="120" font-family="Arial" font-size="11" font-weight="800" fill="#6f9a63">background fade</text>
      <text x="176" y="120" font-family="Arial" font-size="11" font-weight="800" fill="#322d2a">original photo</text>
    </g>
    <rect x="42" y="236" width="242" height="8" rx="4" fill="#f8e8d7"/>
    <rect x="42" y="236" width="164" height="8" rx="4" fill="#6f9a63"/>
  </g>

  <g transform="translate(32 526)" filter="url(#shadow)">
    <rect width="326" height="226" rx="28" fill="#fffdf8"/>
    <text x="24" y="38" font-family="Arial" font-size="20" font-weight="900" fill="#322d2a">Review before saving</text>
    <g transform="translate(24 58)">
      <text x="0" y="0" font-family="Arial" font-size="12" font-weight="800" fill="#e87a78">Before</text>
      <rect y="10" width="132" height="124" rx="16" fill="#8bb7c9"/>
      <rect x="42" y="45" width="28" height="52" rx="10" fill="#6f9a63"/>
      <path d="M72 55c26 0 26 32 0 32" fill="none" stroke="#e87a78" stroke-width="8" stroke-linecap="round"/>
      <circle cx="24" cy="30" r="12" fill="#ffe6b8" opacity=".8"/>
      <rect x="80" y="20" width="38" height="18" rx="9" fill="#ead4c2" opacity=".9"/>
    </g>
    <g transform="translate(170 58)">
      <text x="0" y="0" font-family="Arial" font-size="12" font-weight="800" fill="#e87a78">Cutout</text>
      <rect y="10" width="132" height="124" rx="16" fill="#e7f0d5"/>
      <path d="M22 26h88v92h-88z" fill="#fffdf8" opacity=".4"/>
      <rect x="49" y="45" width="28" height="52" rx="10" fill="#6f9a63"/>
      <path d="M79 55c26 0 26 32 0 32" fill="none" stroke="#e87a78" stroke-width="8" stroke-linecap="round"/>
      <text x="26" y="115" font-family="Arial" font-size="10" font-weight="800" fill="#6f9a63">transparent PNG</text>
    </g>
    <rect x="24" y="176" width="126" height="32" rx="16" fill="#dcecc7"/>
    <text x="55" y="197" font-family="Arial" font-size="12" font-weight="800" fill="#322d2a">Matcha</text>
    <rect x="164" y="176" width="64" height="32" rx="16" fill="#ffdfdc"/>
    <text x="184" y="197" font-family="Arial" font-size="12" font-weight="800" fill="#322d2a">Mia</text>
  </g>
</svg>
