<svg xmlns="http://www.w3.org/2000/svg" width="390" height="844" viewBox="0 0 390 844">
  <defs>
    <linearGradient id="bg" x1="0" y1="0" x2="0" y2="1">
      <stop stop-color="#fff7ee"/>
      <stop offset=".55" stop-color="#fffaf4"/>
      <stop offset="1" stop-color="#ffdfdc"/>
    </linearGradient>
    <linearGradient id="hero" x1="0" y1="0" x2="1" y2="0">
      <stop stop-color="#e7f0d5"/>
      <stop offset="1" stop-color="#ffe6b8"/>
    </linearGradient>
    <filter id="shadow" x="-20%" y="-20%" width="140%" height="140%">
      <feDropShadow dx="0" dy="7" stdDeviation="8" flood-color="#dec8b8" flood-opacity=".35"/>
    </filter>
  </defs>
  <rect width="390" height="844" fill="url(#bg)"/>

  <g transform="translate(18 24)" filter="url(#shadow)">
    <rect width="354" height="96" rx="24" fill="url(#hero)"/>
    <circle cx="39" cy="48" r="24" fill="#fffdf8"/>
    <rect x="30" y="34" width="18" height="28" rx="7" fill="#6f9a63"/>
    <rect x="34" y="40" width="11" height="5" rx="2" fill="#f4b95d"/>
    <path d="M50 42c13 0 13 17 0 17" fill="none" stroke="#e87a78" stroke-width="5" stroke-linecap="round"/>
    <text x="76" y="43" fill="#322d2a" font-family="Arial, sans-serif" font-size="25" font-weight="800">Sips &amp; Snacks</text>
    <text x="78" y="67" fill="#6f9a63" font-family="Arial, sans-serif" font-size="14" font-weight="700">May 2026</text>
    <circle cx="293" cy="48" r="19" fill="#fffdf8"/>
    <path d="M298 39l-9 9 9 9" fill="none" stroke="#6f9a63" stroke-width="3" stroke-linecap="round" stroke-linejoin="round"/>
    <circle cx="333" cy="48" r="19" fill="#fffdf8"/>
    <path d="M328 39l9 9-9 9" fill="none" stroke="#6f9a63" stroke-width="3" stroke-linecap="round" stroke-linejoin="round"/>
  </g>

  <g transform="translate(24 142)">
    <rect x="0" y="0" width="342" height="44" rx="22" fill="#f8e8d7"/>
    <rect x="5" y="5" width="108" height="34" rx="17" fill="#6f9a63"/>
    <text x="37" y="27" fill="#ffffff" font-family="Arial, sans-serif" font-size="13" font-weight="800">Month</text>
    <text x="148" y="27" fill="#6f9a63" font-family="Arial, sans-serif" font-size="13" font-weight="800">Week</text>
    <text x="260" y="27" fill="#6f9a63" font-family="Arial, sans-serif" font-size="13" font-weight="800">Day</text>
  </g>

  <g transform="translate(24 218)" font-family="Arial, sans-serif">
    <g fill="#6f9a63" font-size="12" font-weight="800">
      <text x="6" y="0">Sun</text><text x="55" y="0">Mon</text><text x="105" y="0">Tue</text><text x="153" y="0">Wed</text><text x="202" y="0">Thu</text><text x="254" y="0">Fri</text><text x="301" y="0">Sat</text>
    </g>
    <g transform="translate(0 16)">
      <g stroke-width="1.5">
        <rect x="0" y="0" width="43" height="64" rx="14" fill="#fffdf8" stroke="#f8e8d7"/>
        <rect x="49" y="0" width="43" height="64" rx="14" fill="#fffdf8" stroke="#f8e8d7"/>
        <rect x="98" y="0" width="43" height="64" rx="14" fill="#fffdf8" stroke="#f8e8d7"/>
        <rect x="147" y="0" width="43" height="64" rx="14" fill="#fffdf8" stroke="#f8e8d7"/>
        <rect x="196" y="0" width="43" height="64" rx="14" fill="#fffdf8" stroke="#f8e8d7"/>
        <rect x="245" y="0" width="43" height="64" rx="14" fill="#fffdf8" stroke="#f8e8d7"/>
        <rect x="294" y="0" width="43" height="64" rx="14" fill="#fffdf8" stroke="#f8e8d7"/>
        <rect x="0" y="72" width="43" height="64" rx="14" fill="#fffdf8" stroke="#f8e8d7"/>
        <rect x="49" y="72" width="43" height="64" rx="14" fill="#fffdf8" stroke="#f8e8d7"/>
        <rect x="98" y="72" width="43" height="64" rx="14" fill="#fffdf8" stroke="#f8e8d7"/>
        <rect x="147" y="72" width="43" height="64" rx="14" fill="#fffdf8" stroke="#f8e8d7"/>
        <rect x="196" y="72" width="43" height="64" rx="14" fill="#ffdfdc" stroke="#f4b95d"/>
        <rect x="245" y="72" width="43" height="64" rx="14" fill="#fffdf8" stroke="#f8e8d7"/>
        <rect x="294" y="72" width="43" height="64" rx="14" fill="#fffdf8" stroke="#f8e8d7"/>
        <rect x="0" y="144" width="43" height="64" rx="14" fill="#fffdf8" stroke="#f8e8d7"/>
        <rect x="49" y="144" width="43" height="64" rx="14" fill="#fffdf8" stroke="#f8e8d7"/>
        <rect x="98" y="144" width="43" height="64" rx="14" fill="#e7f0d5" stroke="#6f9a63"/>
        <rect x="147" y="144" width="43" height="64" rx="14" fill="#fffdf8" stroke="#f8e8d7"/>
        <rect x="196" y="144" width="43" height="64" rx="14" fill="#fffdf8" stroke="#f8e8d7"/>
        <rect x="245" y="144" width="43" height="64" rx="14" fill="#fffdf8" stroke="#f8e8d7"/>
        <rect x="294" y="144" width="43" height="64" rx="14" fill="#fffdf8" stroke="#f8e8d7"/>
      </g>
      <g fill="#322d2a" font-size="13" font-weight="900">
        <text x="12" y="22">3</text><text x="61" y="22">4</text><text x="110" y="22">5</text><text x="159" y="22">6</text><text x="208" y="22">7</text><text x="257" y="22">8</text><text x="303" y="22">9</text>
        <text x="9" y="94">10</text><text x="58" y="94">11</text><text x="107" y="94">12</text><text x="156" y="94">13</text><text x="205" y="94">14</text><text x="254" y="94">15</text><text x="303" y="94">16</text>
        <text x="9" y="166">17</text><text x="58" y="166">18</text><text x="107" y="166">19</text><text x="156" y="166">20</text><text x="205" y="166">21</text><text x="254" y="166">22</text><text x="303" y="166">23</text>
      </g>
      <g>
        <rect x="205" y="103" width="24" height="24" rx="10" fill="#fffdf8"/>
        <rect x="210" y="109" width="10" height="14" rx="4" fill="#6f9a63"/>
        <rect x="212" y="112" width="6" height="3" rx="1" fill="#f4b95d"/>
        <path d="M221 111c8 0 8 10 0 10" fill="none" stroke="#e87a78" stroke-width="3"/>
        <rect x="222" y="103" width="24" height="24" rx="10" fill="#fffdf8"/>
        <path d="M228 115c0-9 13-9 13 0 0 7-6.5 10-6.5 10s-6.5-3-6.5-10z" fill="#e87a78"/>
        <rect x="108" y="175" width="24" height="24" rx="10" fill="#fffdf8"/>
        <rect x="114" y="181" width="11" height="14" rx="4" fill="#6f9a63"/>
        <circle cx="125" cy="184" r="2.5" fill="#f4b95d"/>
      </g>
    </g>
  </g>

  <g transform="translate(24 525)" filter="url(#shadow)">
    <text x="2" y="0" fill="#322d2a" font-family="Arial, sans-serif" font-size="18" font-weight="900">Today</text>
    <rect x="0" y="18" width="342" height="112" rx="20" fill="#fffdf8"/>
    <rect x="14" y="35" width="78" height="78" rx="18" fill="#e7f0d5"/>
    <rect x="42" y="54" width="22" height="36" rx="8" fill="#6f9a63"/>
    <rect x="46" y="61" width="14" height="5" rx="2" fill="#f4b95d"/>
    <path d="M66 61c18 0 18 24 0 24" fill="none" stroke="#e87a78" stroke-width="6" stroke-linecap="round"/>
    <text x="110" y="51" fill="#322d2a" font-family="Arial, sans-serif" font-size="17" font-weight="900">Iced matcha</text>
    <rect x="110" y="62" width="67" height="24" rx="12" fill="#dcecc7"/>
    <text x="123" y="78" fill="#322d2a" font-family="Arial, sans-serif" font-size="12" font-weight="800">Matcha</text>
    <text x="187" y="79" fill="#322d2a" font-family="Arial, sans-serif" font-size="13">70mg caffeine</text>
    <text x="110" y="104" fill="#6f9a63" font-family="Arial, sans-serif" font-size="13" font-weight="700">Little Green Cafe</text>
  </g>

  <g filter="url(#shadow)">
    <circle cx="290" cy="782" r="29" fill="#6f9a63"/>
    <path d="M276 782h28M290 768v28" stroke="#ffffff" stroke-width="4" stroke-linecap="round"/>
    <circle cx="352" cy="782" r="29" fill="#6f9a63"/>
    <path d="M339 775h26v19h-26zM346 770h12" fill="none" stroke="#ffffff" stroke-width="3" stroke-linecap="round" stroke-linejoin="round"/>
  </g>
</svg>
