<svg xmlns="http://www.w3.org/2000/svg" width="390" height="844" viewBox="0 0 390 844">
  <defs>
    <linearGradient id="bg" x1="0" y1="0" x2="0" y2="1">
      <stop stop-color="#fff7ee"/>
      <stop offset="1" stop-color="#ffdfdc"/>
    </linearGradient>
    <linearGradient id="hero" x1="0" y1="0" x2="1" y2="0">
      <stop stop-color="#e7f0d5"/>
      <stop offset="1" stop-color="#ffe6b8"/>
    </linearGradient>
    <filter id="shadow" x="-20%" y="-20%" width="140%" height="140%">
      <feDropShadow dx="0" dy="8" stdDeviation="9" flood-color="#dec8b8" flood-opacity=".35"/>
    </filter>
  </defs>
  <rect width="390" height="844" fill="url(#bg)"/>
  <g transform="translate(18 24)" filter="url(#shadow)">
    <rect width="354" height="96" rx="24" fill="url(#hero)"/>
    <circle cx="39" cy="48" r="24" fill="#fffdf8"/>
    <rect x="30" y="34" width="18" height="28" rx="7" fill="#6f9a63"/>
    <path d="M50 42c13 0 13 17 0 17" fill="none" stroke="#e87a78" stroke-width="5" stroke-linecap="round"/>
    <text x="76" y="43" fill="#322d2a" font-family="Arial, sans-serif" font-size="25" font-weight="800">Sips &amp; Snacks</text>
    <text x="78" y="67" fill="#6f9a63" font-family="Arial, sans-serif" font-size="14" font-weight="700">May 2026</text>
  </g>
  <g transform="translate(24 138)">
    <rect width="342" height="44" rx="18" fill="#fffdf8" opacity=".9"/>
    <text x="14" y="27" fill="#e87a78" font-family="Arial, sans-serif" font-size="13" font-weight="800">Cafe crew</text>
    <g transform="translate(96 10)">
      <circle cx="12" cy="12" r="12" fill="#ffdfdc"/><text x="7" y="17" font-family="Arial" font-size="12" font-weight="800" fill="#322d2a">M</text>
      <circle cx="64" cy="12" r="12" fill="#ffe6b8"/><text x="60" y="17" font-family="Arial" font-size="12" font-weight="800" fill="#322d2a">L</text>
      <circle cx="116" cy="12" r="12" fill="#e7f0d5"/><text x="112" y="17" font-family="Arial" font-size="12" font-weight="800" fill="#322d2a">A</text>
      <text x="29" y="17" font-family="Arial" font-size="12" font-weight="700" fill="#322d2a">Mia</text>
      <text x="81" y="17" font-family="Arial" font-size="12" font-weight="700" fill="#322d2a">Lulu</text>
      <text x="133" y="17" font-family="Arial" font-size="12" font-weight="700" fill="#322d2a">Ava</text>
    </g>
  </g>
  <g transform="translate(24 202)">
    <rect x="0" y="0" width="342" height="44" rx="22" fill="#f8e8d7"/>
    <rect x="5" y="5" width="108" height="34" rx="17" fill="#6f9a63"/>
    <text x="37" y="27" fill="#ffffff" font-family="Arial" font-size="13" font-weight="800">Month</text>
    <text x="148" y="27" fill="#6f9a63" font-family="Arial" font-size="13" font-weight="800">Week</text>
    <text x="260" y="27" fill="#6f9a63" font-family="Arial" font-size="13" font-weight="800">Day</text>
  </g>
  <g transform="translate(24 278)" font-family="Arial">
    <g fill="#6f9a63" font-size="12" font-weight="800">
      <text x="6" y="0">Sun</text><text x="55" y="0">Mon</text><text x="105" y="0">Tue</text><text x="153" y="0">Wed</text><text x="202" y="0">Thu</text><text x="254" y="0">Fri</text><text x="301" y="0">Sat</text>
    </g>
    <g transform="translate(0 16)">
      <g stroke-width="1.5" fill="#fffdf8" stroke="#f8e8d7">
        <rect x="0" y="0" width="43" height="64" rx="14"/><rect x="49" y="0" width="43" height="64" rx="14"/><rect x="98" y="0" width="43" height="64" rx="14"/><rect x="147" y="0" width="43" height="64" rx="14"/><rect x="196" y="0" width="43" height="64" rx="14"/><rect x="245" y="0" width="43" height="64" rx="14"/><rect x="294" y="0" width="43" height="64" rx="14"/>
        <rect x="0" y="72" width="43" height="64" rx="14"/><rect x="49" y="72" width="43" height="64" rx="14"/><rect x="98" y="72" width="43" height="64" rx="14"/><rect x="147" y="72" width="43" height="64" rx="14"/><rect x="196" y="72" width="43" height="64" rx="14" fill="#ffdfdc" stroke="#f4b95d"/><rect x="245" y="72" width="43" height="64" rx="14"/><rect x="294" y="72" width="43" height="64" rx="14"/>
      </g>
      <g fill="#322d2a" font-size="13" font-weight="900">
        <text x="12" y="22">3</text><text x="61" y="22">4</text><text x="110" y="22">5</text><text x="159" y="22">6</text><text x="208" y="22">7</text><text x="257" y="22">8</text><text x="303" y="22">9</text>
        <text x="9" y="94">10</text><text x="58" y="94">11</text><text x="107" y="94">12</text><text x="156" y="94">13</text><text x="205" y="94">14</text><text x="254" y="94">15</text><text x="303" y="94">16</text>
      </g>
      <rect x="205" y="103" width="24" height="24" rx="10" fill="#fffdf8"/>
      <rect x="210" y="109" width="10" height="14" rx="4" fill="#6f9a63"/>
      <path d="M221 111c8 0 8 10 0 10" fill="none" stroke="#e87a78" stroke-width="3"/>
      <circle cx="205" cy="130" r="8" fill="#ffdfdc"/><text x="201" y="134" font-size="8" font-weight="800" fill="#322d2a">M</text>
      <circle cx="224" cy="130" r="8" fill="#ffe6b8"/><text x="221" y="134" font-size="8" font-weight="800" fill="#322d2a">L</text>
    </g>
  </g>
  <g transform="translate(32 470)" filter="url(#shadow)">
    <rect width="326" height="250" rx="28" fill="#fffdf8" stroke="#f4b95d" stroke-width="2"/>
    <text x="26" y="40" font-family="Arial" font-size="27" font-weight="900" fill="#f4b95d">*</text>
    <text x="281" y="44" font-family="Arial" font-size="24" font-weight="900" fill="#e87a78">*</text>
    <rect x="115" y="48" width="96" height="96" rx="28" fill="#ffe6b8"/>
    <rect x="150" y="75" width="24" height="40" rx="9" fill="#6f9a63"/>
    <path d="M177 82c21 0 21 28 0 28" fill="none" stroke="#e87a78" stroke-width="7" stroke-linecap="round"/>
    <text x="57" y="178" font-family="Arial" font-size="18" font-weight="900" fill="#322d2a">Peeling the background</text>
    <text x="57" y="202" font-family="Arial" font-size="12" font-weight="700" fill="#6f9a63">ML Kit finds the drink.</text>
    <text x="57" y="219" font-family="Arial" font-size="12" font-weight="700" fill="#6f9a63">Then the app saves a cutout.</text>
    <rect x="42" y="222" width="242" height="8" rx="4" fill="#f8e8d7"/>
    <rect x="42" y="222" width="158" height="8" rx="4" fill="#6f9a63"/>
  </g>
</svg>
